<svg xmlns="http://www.w3.org/2000/svg" viewBox="0 0 96 96">
  <rect width="96" height="96" rx="12" fill="#171412"/>
  <path d="M48 88C28 72 18 54 20 36c2-17 14-28 28-28s26 11 28 28c2 18-8 36-28 52Z" fill="#d84f3f"/>
  <path d="M44 36C33 23 21 24 13 32c12 3 22 9 31 21V36Zm8 0c11-13 23-12 31-4-12 3-22 9-31 21V36Z" fill="#f6eddb"/>
  <path d="M48 61c0-9 10-9 10-19 0-7-5-12-12-12-6 0-11 3-14 8l8 6c1-3 3-5 6-5 2 0 4 1 4 4 0 6-11 8-11 18h9Zm-5 15a6 6 0 1 0 12 0 6 6 0 0 0-12 0Z" fill="#f6eddb"/>
</svg>
